<?xml version="1.0" encoding="UTF-8" standalone="no"?>
<!-- Generator: Adobe Illustrator 19.0.0, SVG Export Plug-In . SVG Version: 6.00 Build 0)  -->

<svg
   xmlns:dc="http://purl.org/dc/elements/1.1/"
   xmlns:cc="http://creativecommons.org/ns#"
   xmlns:rdf="http://www.w3.org/1999/02/22-rdf-syntax-ns#"
   xmlns:svg="http://www.w3.org/2000/svg"
   xmlns="http://www.w3.org/2000/svg"
   xmlns:sodipodi="http://sodipodi.sourceforge.net/DTD/sodipodi-0.dtd"
   xmlns:inkscape="http://www.inkscape.org/namespaces/inkscape"
   version="1.1"
   id="Capa_1"
   x="0px"
   y="0px"
   viewBox="0 0 512 512"
   style="enable-background:new 0 0 512 512;"
   xml:space="preserve"
   inkscape:version="0.91 r13725"
   sodipodi:docname="employee.svg"><metadata
     id="metadata111"><rdf:RDF><cc:Work
         rdf:about=""><dc:format>image/svg+xml</dc:format><dc:type
           rdf:resource="http://purl.org/dc/dcmitype/StillImage" /></cc:Work></rdf:RDF></metadata><defs
     id="defs109" /><sodipodi:namedview
     pagecolor="#ffffff"
     bordercolor="#666666"
     borderopacity="1"
     objecttolerance="10"
     gridtolerance="10"
     guidetolerance="10"
     inkscape:pageopacity="0"
     inkscape:pageshadow="2"
     inkscape:window-width="1920"
     inkscape:window-height="1022"
     id="namedview107"
     showgrid="false"
     inkscape:zoom="0.4609375"
     inkscape:cx="-80.271186"
     inkscape:cy="256"
     inkscape:window-x="0"
     inkscape:window-y="30"
     inkscape:window-maximized="1"
     inkscape:current-layer="Capa_1" /><g
     id="g4239"
     transform="matrix(0.60169492,0,0,0.60169492,101.9658,101.9661)"><path
       id="path3"
       d="m 255.051,0 c -39.073,0 -70.746,31.674 -70.746,70.747 l 0,28.606 c 4.728,-4.383 11.455,-6.765 18.021,-5.888 l 0,-3.525 c 0,-2.802 2.393,-5.016 5.167,-4.806 27.353,1.965 55.19,-6.727 76.237,-20.476 1.965,-1.284 4.567,-0.965 6.164,0.751 17.994,19.342 17.886,18.593 17.886,21.119 l 0,6.923 c 7.197,-1.079 13.582,1.145 18.018,5.27 l 0,-27.974 C 325.797,31.674 294.125,0 255.051,0 Z"
       style="fill:#707487"
       inkscape:connector-curvature="0" /><path
       id="path5"
       d="m 206.552,70.747 c 0,-35.288 25.836,-64.533 59.623,-69.869 C 262.549,0.305 258.837,0 255.051,0 215.978,0 184.305,31.674 184.305,70.747 l 0,28.606 c 4.728,-4.383 11.455,-6.765 18.021,-5.888 l 0,-3.525 c 0,-2.479 1.874,-4.489 4.226,-4.777 l 0,-14.416 0,0 z"
       style="fill:#5b5d6e"
       inkscape:connector-curvature="0" /><path
       id="path7"
       d="m 307.685,90.888 0,38.906 c 0,0.422 -0.022,0.838 -0.032,1.258 13.768,2.085 24.551,-7.863 24.551,-20.081 -0.001,-12.241 -10.793,-22.14 -24.519,-20.083 z"
       style="fill:#f0a479"
       inkscape:connector-curvature="0" /><path
       id="path9"
       d="M 325.829,96.229 C 321.374,92.055 314.94,89.8 307.684,90.888 l 0,38.906 c 0,0.422 -0.022,0.838 -0.032,1.258 7.277,1.102 13.719,-1.159 18.177,-5.34 l 0,-29.483 z"
       style="fill:#e59770"
       inkscape:connector-curvature="0" /><path
       id="path11"
       d="m 202.483,129.841 0,-38.99 c -12.017,-1.605 -24.582,7.618 -24.582,20.12 0,12.232 10.786,22.224 24.612,20.131 -0.009,-0.42 -0.03,-0.839 -0.03,-1.261 z"
       style="fill:#f0a479"
       inkscape:connector-curvature="0" /><path
       id="path13"
       d="m 202.483,123.792 c -2.881,-3.524 -4.564,-7.996 -4.564,-12.82 0,-4.663 1.749,-8.868 4.564,-12.227 l 0,-7.893 c -12.017,-1.605 -24.582,7.618 -24.582,20.12 0,12.232 10.786,22.224 24.612,20.131 -0.01,-0.421 -0.031,-0.84 -0.031,-1.261 l 0,-6.05 0.001,0 z"
       style="fill:#e59770"
       inkscape:connector-curvature="0" /><path
       id="path15"
       d="m 255.805,179.211 c -11.43,0 -21.474,-3.138 -29.689,-8.387 l 0,28.984 29.562,36.49 29.562,-36.49 0,-29.767 c -8.375,5.777 -18.515,9.17 -29.435,9.17 z"
       style="fill:#f0a479"
       inkscape:connector-curvature="0" /><path
       id="path17"
       d="m 248.113,178.714 c -8.278,-1.073 -15.68,-3.854 -21.997,-7.89 l 0,28.984 21.997,27.152 0,-48.246 z"
       style="fill:#e59770"
       inkscape:connector-curvature="0" /><path
       id="path19"
       d="m 363.444,227.611 -78.205,-30.287 -29.562,36.49 -29.562,-36.49 -78.123,30.287 c 0,0 -28.925,11.891 -28.925,44.865 0,29.836 0,105.255 0,129.358 0,5.323 4.316,9.638 9.638,9.638 4.056,0 249.905,0 254.024,0 5.323,0 9.638,-4.316 9.638,-9.638 0,-24.103 0,-99.522 0,-129.358 10e-4,-32.974 -28.923,-44.865 -28.923,-44.865 z"
       style="fill:#e4eaf8"
       inkscape:connector-curvature="0" /><path
       id="path21"
       d="m 141.065,401.834 c 0,-24.103 0,-110.521 0,-140.357 0,-19.551 10.169,-31.689 18.448,-38.332 l -11.52,4.466 c 0,0 -28.925,11.891 -28.925,44.865 0,29.836 0,105.255 0,129.358 0,5.323 4.316,9.638 9.639,9.638 0.714,0 8.931,0 21.997,0 -5.323,0.001 -9.639,-4.315 -9.639,-9.638 z"
       style="fill:#d8dce5"
       inkscape:connector-curvature="0" /><path
       id="path23"
       d="m 289.894,62.925 c -1.597,-1.716 -4.199,-2.035 -6.164,-0.751 -21.047,13.749 -48.884,22.441 -76.237,20.476 -2.774,-0.21 -5.168,2.003 -5.168,4.806 l 0,42.265 c 0,27.164 21.284,51.974 53.479,51.974 28.659,0 51.975,-23.316 51.975,-51.974 l 0,-45.677 c 0,-2.526 0.109,-1.777 -17.885,-21.119 z"
       style="fill:#f0a479"
       inkscape:connector-curvature="0" /><path
       id="path25"
       d="m 224.359,129.721 0,-47.168 c -5.601,0.448 -11.243,0.501 -16.866,0.097 -2.774,-0.21 -5.167,2.003 -5.167,4.806 l 0,42.265 c 0,27.164 21.284,51.974 53.479,51.974 3.513,0 6.945,-0.355 10.265,-1.023 -23.76,-4.779 -41.711,-25.806 -41.711,-50.951 z"
       style="fill:#e59770"
       inkscape:connector-curvature="0" /><g
       id="g27"><path
         id="path29"
         d="m 291.371,252.563 22.106,-44.303 -28.238,-10.936 -29.562,36.49 28.822,20.469 c 2.333,1.657 5.593,0.841 6.872,-1.72 z"
         style="fill:#d8dce5"
         inkscape:connector-curvature="0" /><path
         id="path31"
         d="m 220.025,252.563 -22.106,-44.303 28.238,-10.936 29.562,36.49 -28.822,20.469 c -2.333,1.657 -5.594,0.841 -6.872,-1.72 z"
         style="fill:#d8dce5"
         inkscape:connector-curvature="0" /></g><path
       id="path33"
       d="m 285.743,375.682 -18.973,-112.279 -11.054,0 -0.036,0 -11.054,0 -18.973,112.279 c -0.199,1.447 0.225,2.915 1.13,3.912 l 0,0 0,0 26.194,28.863 c 1.459,1.608 3.984,1.608 5.443,0 l 26.194,-28.863 0,0 0,0 c 0.904,-0.996 1.327,-2.465 1.129,-3.912 z"
       style="fill:#ff5050"
       inkscape:connector-curvature="0" /><g
       id="g35"><path
         id="path37"
         d="m 248.816,379.595 c -0.905,-0.997 -1.329,-2.466 -1.13,-3.912 l 18.973,-112.279 -10.944,0 -0.036,0 -11.054,0 -18.973,112.279 c -0.2,1.447 0.225,2.915 1.129,3.912 l 26.194,28.863 c 1.459,1.608 3.984,1.608 5.443,0 l 8.296,-9.141 -17.898,-19.722 z"
         style="fill:#ed3a3a"
         inkscape:connector-curvature="0" /><polygon
         id="polygon39"
         points="255.68,233.814 255.68,233.839 234.717,248.727 244.626,263.64 255.68,263.64 255.716,263.64 266.77,263.64 276.678,248.727 255.716,233.839 255.716,233.814 255.698,233.826 "
         style="fill:#ed3a3a" /></g><path
       id="path41"
       d="m 266.697,241.638 -10.981,-7.799 0,-0.025 -0.018,0.013 -0.018,-0.013 0,0.025 -20.963,14.888 9.909,14.913 11.054,0 0.036,0 10.908,0 -8.506,-12.802 c -0.782,-1.176 -0.488,-2.761 0.664,-3.579 l 7.915,-5.621 z"
       style="fill:#db2a2a"
       inkscape:connector-curvature="0" /><g
       id="g43"><path
         id="path45"
         d="m 175.346,411.473 0,-124.066 c 0,-4.556 -3.693,-8.249 -8.249,-8.249 -4.556,0 -8.249,3.693 -8.249,8.249 l 0,124.066 c 5.033,0 10.569,0 16.498,0 z"
         style="fill:#d8dce5"
         inkscape:connector-curvature="0" /><path
         id="path47"
         d="m 351.254,411.473 0,-124.066 c 0,-4.556 -3.693,-8.249 -8.249,-8.249 -4.556,0 -8.249,3.693 -8.249,8.249 l 0,124.066 c 5.912,0 11.442,0 16.498,0 z"
         style="fill:#d8dce5"
         inkscape:connector-curvature="0" /></g><g
       id="g49"><path
         id="path51"
         d="m 67.674,366.523 c -4.267,0 -7.727,-3.459 -7.727,-7.727 l 0,-116.711 c 0,-1.693 0.556,-3.339 1.583,-4.686 l 41.291,-54.14 c 2.588,-3.393 7.437,-4.046 10.83,-1.458 3.393,2.588 4.046,7.436 1.458,10.83 l -39.708,52.065 0,114.101 c 0,4.267 -3.46,7.726 -7.727,7.726 z"
         style="fill:#e4eaf8"
         inkscape:connector-curvature="0" /><path
         id="path53"
         d="m 444.326,366.523 c -4.267,0 -7.727,-3.459 -7.727,-7.727 l 0,-114.101 -39.708,-52.065 c -2.588,-3.393 -1.935,-8.242 1.458,-10.83 3.394,-2.588 8.241,-1.936 10.83,1.458 l 41.291,54.14 c 1.027,1.347 1.583,2.993 1.583,4.686 l 0,116.712 c 0,4.268 -3.461,7.727 -7.727,7.727 z"
         style="fill:#e4eaf8"
         inkscape:connector-curvature="0" /></g><g
       id="g55"><circle
         id="circle57"
         r="20.530001"
         cy="171.63"
         cx="121.16"
         style="fill:#707487" /><circle
         id="circle59"
         r="20.530001"
         cy="171.63"
         cx="390.84"
         style="fill:#707487" /></g><g
       id="g61"><path
         id="path63"
         d="m 121.313,171.628 c 0,-7.563 4.102,-14.154 10.191,-17.715 -3.039,-1.778 -6.564,-2.814 -10.339,-2.814 -11.338,0 -20.53,9.191 -20.53,20.53 0,11.339 9.191,20.53 20.53,20.53 3.775,0 7.3,-1.036 10.339,-2.814 -6.09,-3.563 -10.191,-10.153 -10.191,-17.717 z"
         style="fill:#5b5d6e"
         inkscape:connector-curvature="0" /><path
         id="path65"
         d="m 390.984,171.628 c 0,-7.563 4.102,-14.154 10.191,-17.715 -3.039,-1.778 -6.564,-2.814 -10.339,-2.814 -11.338,0 -20.53,9.191 -20.53,20.53 0,11.339 9.191,20.53 20.53,20.53 3.775,0 7.3,-1.036 10.339,-2.814 -6.089,-3.563 -10.191,-10.153 -10.191,-17.717 z"
         style="fill:#5b5d6e"
         inkscape:connector-curvature="0" /></g><path
       id="path67"
       d="m 54.74,402.123 0,101.513 c 0,4.619 3.745,8.364 8.364,8.364 l 385.792,0 c 4.619,0 8.363,-3.745 8.363,-8.364 l 0,-101.513 -402.519,0 z"
       style="fill:#868b9b"
       inkscape:connector-curvature="0" /><g
       id="g69"><path
         id="path71"
         d="m 75.345,503.636 0,-101.513 -20.605,0 0,101.513 c 0,4.619 3.745,8.364 8.364,8.364 l 20.605,0 c -4.619,0 -8.364,-3.745 -8.364,-8.364 z"
         style="fill:#707487"
         inkscape:connector-curvature="0" /><path
         id="path73"
         d="m 465.239,409.335 -418.478,0 c -5.018,0 -9.086,-4.068 -9.086,-9.086 l 0,-40.609 c 0,-5.018 4.068,-9.086 9.086,-9.086 l 418.479,0 c 5.018,0 9.086,4.068 9.086,9.086 l 0,40.609 c 0,5.018 -4.068,9.086 -9.087,9.086 z"
         style="fill:#707487"
         inkscape:connector-curvature="0" /></g><path
       id="path75"
       d="m 464.965,388.73 -417.929,0 c -5.17,0 -9.361,-4.191 -9.361,-9.361 l 0,20.605 c 0,5.17 4.191,9.361 9.361,9.361 l 417.929,0 c 5.17,0 9.361,-4.191 9.361,-9.361 l 0,-20.605 c -0.001,5.17 -4.191,9.361 -9.361,9.361 z"
       style="fill:#5b5d6e"
       inkscape:connector-curvature="0" /><g
       id="g77" /><g
       id="g79" /><g
       id="g81" /><g
       id="g83" /><g
       id="g85" /><g
       id="g87" /><g
       id="g89" /><g
       id="g91" /><g
       id="g93" /><g
       id="g95" /><g
       id="g97" /><g
       id="g99" /><g
       id="g101" /><g
       id="g103" /><g
       id="g105" /></g></svg>