<?xml version="1.0" encoding="UTF-8" standalone="no"?>
<!-- Generator: Adobe Illustrator 19.0.0, SVG Export Plug-In . SVG Version: 6.00 Build 0)  -->

<svg
   xmlns:dc="http://purl.org/dc/elements/1.1/"
   xmlns:cc="http://creativecommons.org/ns#"
   xmlns:rdf="http://www.w3.org/1999/02/22-rdf-syntax-ns#"
   xmlns:svg="http://www.w3.org/2000/svg"
   xmlns="http://www.w3.org/2000/svg"
   xmlns:sodipodi="http://sodipodi.sourceforge.net/DTD/sodipodi-0.dtd"
   xmlns:inkscape="http://www.inkscape.org/namespaces/inkscape"
   version="1.1"
   id="Layer_1"
   x="0px"
   y="0px"
   viewBox="0 0 512 512"
   style="enable-background:new 0 0 512 512;"
   xml:space="preserve"
   inkscape:version="0.91 r13725"
   sodipodi:docname="ribbon.svg"><metadata
     id="metadata69"><rdf:RDF><cc:Work
         rdf:about=""><dc:format>image/svg+xml</dc:format><dc:type
           rdf:resource="http://purl.org/dc/dcmitype/StillImage" /></cc:Work></rdf:RDF></metadata><defs
     id="defs67" /><sodipodi:namedview
     pagecolor="#ffffff"
     bordercolor="#666666"
     borderopacity="1"
     objecttolerance="10"
     gridtolerance="10"
     guidetolerance="10"
     inkscape:pageopacity="0"
     inkscape:pageshadow="2"
     inkscape:window-width="1920"
     inkscape:window-height="1022"
     id="namedview65"
     showgrid="false"
     inkscape:zoom="0.4609375"
     inkscape:cx="-418.71186"
     inkscape:cy="256"
     inkscape:window-x="0"
     inkscape:window-y="30"
     inkscape:window-maximized="1"
     inkscape:current-layer="Layer_1" /><rect
     style="opacity:1;fill:#333333;fill-opacity:1;stroke:none;stroke-width:15;stroke-miterlimit:4;stroke-dasharray:none;stroke-opacity:1"
     id="rect4164"
     width="512"
     height="512"
     x="0"
     y="0" /><g
     id="g4197"
     transform="matrix(0.58061527,0,0,0.58061527,107.36249,107.36249)"><g
       id="g3"><polygon
         id="polygon5"
         points="149.459,409.755 86.502,409.755 86.502,338.195 149.459,338.195 149.459,356.45 "
         style="fill:#ddb200" /><polygon
         id="polygon7"
         points="425.652,409.755 362.694,409.755 362.694,338.195 425.652,338.195 425.652,356.45 "
         style="fill:#ddb200" /></g><path
       id="path9"
       d="m 415.19,356.45 -318.533,0 0,-244.035 c 0,-5.594 4.576,-10.17 10.17,-10.17 l 298.194,0 c 5.594,0 10.17,4.576 10.17,10.17 l -10e-4,244.035 0,0 z"
       style="fill:#ffe477"
       inkscape:connector-curvature="0" /><g
       id="g11"><polygon
         id="polygon13"
         points="96.657,188.058 0.153,188.058 24.496,298.907 0.153,409.755 149.459,409.755 96.657,356.45 "
         style="fill:#ffeb99" /><polygon
         id="polygon15"
         points="415.496,188.058 512,188.058 487.657,298.907 512,409.755 362.694,409.755 415.19,356.45 "
         style="fill:#ffeb99" /><path
         id="path17"
         d="m 144.81,102.246 0,69.623 c 0,4.31 -3.493,7.804 -7.804,7.804 -4.311,0 -7.804,-3.494 -7.804,-7.804 l 0,-69.623 15.608,0 z"
         style="fill:#ffeb99"
         inkscape:connector-curvature="0" /><path
         id="path19"
         d="m 137.006,330.982 c -4.311,0 -7.804,-3.494 -7.804,-7.804 l 0,-74.69 c 0,-4.31 3.493,-7.804 7.804,-7.804 4.311,0 7.804,3.494 7.804,7.804 l 0,74.69 c 0,4.31 -3.493,7.804 -7.804,7.804 z"
         style="fill:#ffeb99"
         inkscape:connector-curvature="0" /><path
         id="path21"
         d="m 362.694,321.135 c -4.311,0 -7.804,-3.494 -7.804,-7.804 l 0,-46.298 c 0,-4.31 3.493,-7.804 7.804,-7.804 4.311,0 7.804,3.494 7.804,7.804 l 0,46.298 c 0,4.31 -3.493,7.804 -7.804,7.804 z"
         style="fill:#ffeb99"
         inkscape:connector-curvature="0" /></g><g
       id="g23"><polygon
         id="polygon25"
         points="281.802,239.846 287.032,277.852 253.026,260.095 218.497,276.813 224.876,238.984 198.307,211.312 236.255,205.688 254.362,171.868 271.437,206.222 309.198,212.991 "
         style="fill:#ddb200" /><g
         id="g27"
         style="opacity:0.33000004"><polygon
           id="polygon29"
           points="9.328,367.28 0,409.755 86.349,409.755 149.306,409.755 149.306,367.28 86.349,367.28 "
           style="fill:#ddb200" /><rect
           id="rect31"
           height="42.476002"
           width="318.53699"
           style="fill:#ddb200"
           y="313.96899"
           x="96.654999" /><polygon
           id="polygon33"
           points="425.499,367.28 362.541,367.28 362.541,409.755 425.499,409.755 511.847,409.755 502.519,367.28 "
           style="fill:#ddb200" /></g></g><g
       id="g35" /><g
       id="g37" /><g
       id="g39" /><g
       id="g41" /><g
       id="g43" /><g
       id="g45" /><g
       id="g47" /><g
       id="g49" /><g
       id="g51" /><g
       id="g53" /><g
       id="g55" /><g
       id="g57" /><g
       id="g59" /><g
       id="g61" /><g
       id="g63" /></g></svg>