<?xml version="1.0" encoding="UTF-8" standalone="no"?>
<!-- Generator: Adobe Illustrator 18.0.0, SVG Export Plug-In . SVG Version: 6.00 Build 0)  -->

<svg
   xmlns:dc="http://purl.org/dc/elements/1.1/"
   xmlns:cc="http://creativecommons.org/ns#"
   xmlns:rdf="http://www.w3.org/1999/02/22-rdf-syntax-ns#"
   xmlns:svg="http://www.w3.org/2000/svg"
   xmlns="http://www.w3.org/2000/svg"
   xmlns:sodipodi="http://sodipodi.sourceforge.net/DTD/sodipodi-0.dtd"
   xmlns:inkscape="http://www.inkscape.org/namespaces/inkscape"
   version="1.1"
   id="Capa_1"
   x="0px"
   y="0px"
   viewBox="0 0 58 58"
   style="enable-background:new 0 0 58 58;"
   xml:space="preserve"
   inkscape:version="0.91 r13725"
   sodipodi:docname="tea.svg"><metadata
     id="metadata57"><rdf:RDF><cc:Work
         rdf:about=""><dc:format>image/svg+xml</dc:format><dc:type
           rdf:resource="http://purl.org/dc/dcmitype/StillImage" /></cc:Work></rdf:RDF></metadata><defs
     id="defs55" /><sodipodi:namedview
     pagecolor="#ffffff"
     bordercolor="#666666"
     borderopacity="1"
     objecttolerance="10"
     gridtolerance="10"
     guidetolerance="10"
     inkscape:pageopacity="0"
     inkscape:pageshadow="2"
     inkscape:window-width="1920"
     inkscape:window-height="1022"
     id="namedview53"
     showgrid="false"
     inkscape:zoom="4.0689655"
     inkscape:cx="-9.0932203"
     inkscape:cy="29"
     inkscape:window-x="0"
     inkscape:window-y="30"
     inkscape:window-maximized="1"
     inkscape:current-layer="Capa_1" /><g
     id="g3"
     transform="matrix(0.59745762,0,0,0.59745762,11.673729,11.674102)"><path
       style="fill:#d2d5d7"
       d="m 54,49.286 c 0,0 -8.538,6.429 -27,6.429 -18.462,0 -27,-6.349 -27,-6.429 l 54,0 z"
       id="path5"
       inkscape:connector-curvature="0" /><path
       style="fill:#d2d5d7"
       d="m 45,41.286 c -0.552,0 -1,-0.447 -1,-1 0,-0.553 0.448,-1 1,-1 6.001,0 10.453,-3.728 10.953,-9 l -8.953,0 c -0.552,0 -1,-0.447 -1,-1 0,-0.553 0.448,-1 1,-1 l 10,0 c 0.552,0 1,0.447 1,1 0,6.841 -5.589,12 -13,12 z"
       id="path7"
       inkscape:connector-curvature="0" /><path
       style="fill:#e6e6e6"
       d="m 15.943,21.006 c -0.256,0 -0.512,-0.098 -0.707,-0.293 -0.87,-0.87 -1.35,-2.026 -1.35,-3.255 0,-1.229 0.479,-2.386 1.35,-3.256 C 15.729,13.711 16,13.056 16,12.361 c 0,-0.695 -0.271,-1.35 -0.764,-1.842 -0.391,-0.391 -0.391,-1.023 0,-1.414 0.39,-0.391 1.023,-0.391 1.414,0 0.87,0.87 1.35,2.026 1.35,3.256 0,1.23 -0.479,2.386 -1.35,3.256 -0.492,0.492 -0.764,1.146 -0.764,1.842 0,0.694 0.271,1.349 0.764,1.841 0.391,0.391 0.391,1.023 0,1.414 -0.194,0.195 -0.451,0.292 -0.707,0.292 z"
       id="path9"
       inkscape:connector-curvature="0" /><path
       style="fill:#e6e6e6"
       d="m 37.943,21.006 c -0.256,0 -0.512,-0.098 -0.707,-0.293 -0.87,-0.87 -1.35,-2.026 -1.35,-3.255 0,-1.229 0.479,-2.386 1.35,-3.256 C 37.729,13.711 38,13.056 38,12.361 c 0,-0.695 -0.271,-1.35 -0.764,-1.842 -0.391,-0.391 -0.391,-1.023 0,-1.414 0.39,-0.391 1.023,-0.391 1.414,0 0.87,0.87 1.35,2.026 1.35,3.256 0,1.23 -0.479,2.386 -1.35,3.256 -0.492,0.492 -0.764,1.146 -0.764,1.842 0,0.694 0.271,1.349 0.764,1.841 0.391,0.391 0.391,1.023 0,1.414 -0.194,0.195 -0.451,0.292 -0.707,0.292 z"
       id="path11"
       inkscape:connector-curvature="0" /><path
       style="fill:#e6e6e6"
       d="m 26.881,18.006 c -0.256,0 -0.512,-0.098 -0.707,-0.293 -1.106,-1.105 -1.715,-2.574 -1.715,-4.137 0,-1.563 0.609,-3.031 1.715,-4.138 0.728,-0.729 1.129,-1.695 1.129,-2.723 0,-1.028 -0.401,-1.995 -1.129,-2.724 -0.391,-0.391 -0.391,-1.023 0,-1.414 0.391,-0.391 1.023,-0.391 1.414,0 1.106,1.106 1.715,2.575 1.715,4.138 0,1.563 -0.609,3.031 -1.715,4.137 -0.728,0.729 -1.129,1.695 -1.129,2.724 0,1.027 0.401,1.994 1.129,2.723 0.391,0.391 0.391,1.023 0,1.414 -0.194,0.196 -0.451,0.293 -0.707,0.293 z"
       id="path13"
       inkscape:connector-curvature="0" /><path
       style="fill:#e6e6e6"
       d="m 16.438,49.286 21.123,0 C 44.646,45.026 48,36.484 48,26.286 l -42,0 c 0,10.198 3.354,18.74 10.438,23 z"
       id="path15"
       inkscape:connector-curvature="0" /><path
       style="fill:#fbd490"
       d="m 20,36.286 c -0.552,0 -1,-0.447 -1,-1 l 0,-10 c 0,-0.553 0.448,-1 1,-1 0.552,0 1,0.447 1,1 l 0,10 c 0,0.552 -0.448,1 -1,1 z"
       id="path17"
       inkscape:connector-curvature="0" /><rect
       x="15.4"
       y="33.285999"
       style="fill:#f9d70b"
       width="9.1999998"
       height="11.5"
       id="rect19" /><rect
       x="15.4"
       y="40.285999"
       style="fill:#eeaf4b"
       width="9.1999998"
       height="4.5"
       id="rect21" /></g><g
     id="g23"
     transform="matrix(0.59745762,0,0,0.59745762,0,22.427648)" /><g
     id="g25"
     transform="matrix(0.59745762,0,0,0.59745762,0,22.427648)" /><g
     id="g27"
     transform="matrix(0.59745762,0,0,0.59745762,0,22.427648)" /><g
     id="g29"
     transform="matrix(0.59745762,0,0,0.59745762,0,22.427648)" /><g
     id="g31"
     transform="matrix(0.59745762,0,0,0.59745762,0,22.427648)" /><g
     id="g33"
     transform="matrix(0.59745762,0,0,0.59745762,0,22.427648)" /><g
     id="g35"
     transform="matrix(0.59745762,0,0,0.59745762,0,22.427648)" /><g
     id="g37"
     transform="matrix(0.59745762,0,0,0.59745762,0,22.427648)" /><g
     id="g39"
     transform="matrix(0.59745762,0,0,0.59745762,0,22.427648)" /><g
     id="g41"
     transform="matrix(0.59745762,0,0,0.59745762,0,22.427648)" /><g
     id="g43"
     transform="matrix(0.59745762,0,0,0.59745762,0,22.427648)" /><g
     id="g45"
     transform="matrix(0.59745762,0,0,0.59745762,0,22.427648)" /><g
     id="g47"
     transform="matrix(0.59745762,0,0,0.59745762,0,22.427648)" /><g
     id="g49"
     transform="matrix(0.59745762,0,0,0.59745762,0,22.427648)" /><g
     id="g51"
     transform="matrix(0.59745762,0,0,0.59745762,0,22.427648)" /></svg>