<?xml version="1.0" encoding="UTF-8" standalone="no"?>
<!-- Generator: Adobe Illustrator 19.0.0, SVG Export Plug-In . SVG Version: 6.00 Build 0)  -->

<svg
   xmlns:dc="http://purl.org/dc/elements/1.1/"
   xmlns:cc="http://creativecommons.org/ns#"
   xmlns:rdf="http://www.w3.org/1999/02/22-rdf-syntax-ns#"
   xmlns:svg="http://www.w3.org/2000/svg"
   xmlns="http://www.w3.org/2000/svg"
   xmlns:sodipodi="http://sodipodi.sourceforge.net/DTD/sodipodi-0.dtd"
   xmlns:inkscape="http://www.inkscape.org/namespaces/inkscape"
   version="1.1"
   id="Layer_1"
   x="0px"
   y="0px"
   viewBox="0 0 512 512"
   style="enable-background:new 0 0 512 512;"
   xml:space="preserve"
   inkscape:version="0.91 r13725"
   sodipodi:docname="team.svg"><metadata
     id="metadata107"><rdf:RDF><cc:Work
         rdf:about=""><dc:format>image/svg+xml</dc:format><dc:type
           rdf:resource="http://purl.org/dc/dcmitype/StillImage" /></cc:Work></rdf:RDF></metadata><defs
     id="defs105" /><sodipodi:namedview
     pagecolor="#ffffff"
     bordercolor="#666666"
     borderopacity="1"
     objecttolerance="10"
     gridtolerance="10"
     guidetolerance="10"
     inkscape:pageopacity="0"
     inkscape:pageshadow="2"
     inkscape:window-width="1920"
     inkscape:window-height="1022"
     id="namedview103"
     showgrid="false"
     inkscape:zoom="0.4609375"
     inkscape:cx="-84.610169"
     inkscape:cy="256"
     inkscape:window-x="0"
     inkscape:window-y="30"
     inkscape:window-maximized="1"
     inkscape:current-layer="Layer_1" /><g
     id="g4235"
     transform="matrix(0.68644067,0,0,0.68644067,80.271188,80.271188)"><path
       id="path3"
       d="m 371.613,227.096 0,5.795 c 0,7.101 1.145,14.155 3.39,20.891 l 13.126,39.378 24.774,0 0,-90.839 -16.516,0 c -13.682,0.001 -24.774,11.092 -24.774,24.775 z"
       style="fill:#5a4146"
       inkscape:connector-curvature="0" /><path
       id="path5"
       d="m 484.684,244.251 -13.974,48.91 -66.065,-57.806 c -9.122,0 -16.516,-7.395 -16.516,-16.516 l 0,0 c 0,-13.682 11.092,-24.774 24.774,-24.774 l 57.806,0 c 9.122,0 16.516,7.395 16.516,16.516 l 0,15.522 c 10e-4,6.137 -0.855,12.245 -2.541,18.148 z"
       style="fill:#694b4b"
       inkscape:connector-curvature="0" /><rect
       id="rect7"
       height="36.549"
       width="49.548"
       style="fill:#e6af78"
       y="317.94"
       x="404.64001" /><path
       id="path9"
       d="m 404.645,333.104 c 7.659,3.112 16.011,4.864 24.774,4.864 8.763,0 17.115,-1.752 24.774,-4.864 l 0,-15.169 -49.548,0 0,15.169 0,0 z"
       style="fill:#d29b6e"
       inkscape:connector-curvature="0" /><path
       id="path11"
       d="m 494.031,349.351 -39.84,-11.382 -24.772,16.439 -24.774,-16.44 -39.838,11.383 c -10.636,3.039 -17.968,12.76 -17.968,23.821 l 0,60.376 c 0,4.561 3.697,8.258 8.258,8.258 l 148.645,0 c 4.561,0 8.258,-3.697 8.258,-8.258 l 0,-60.376 c 0,-11.062 -7.333,-20.782 -17.969,-23.821 z"
       style="fill:#d5dced"
       inkscape:connector-curvature="0" /><polygon
       id="polygon13"
       points="437.677,441.805 421.161,441.805 425.29,354.484 433.548,354.484 "
       style="fill:#afb9d2" /><path
       id="path15"
       d="m 429.419,326.193 0,0 c -27.365,0 -49.548,-22.184 -49.548,-49.548 l 0,-9.675 c 0,-4.38 1.74,-8.581 4.837,-11.679 l 14.975,-14.975 c 3.171,-3.171 7.507,-4.994 11.989,-4.853 26.398,0.833 49.764,6.488 62.537,18.963 3.127,3.054 4.759,7.326 4.759,11.696 l 0,10.523 c 0,27.365 -22.184,49.548 -49.549,49.548 z"
       style="fill:#f0c087"
       inkscape:connector-curvature="0" /><path
       id="path17"
       d="m 404.645,269.018 c 0,-9.526 8,-17.098 17.507,-16.492 16.671,1.064 41.409,3.85 56.586,11.15 -0.495,-3.484 -1.992,-6.773 -4.529,-9.251 -12.773,-12.475 -36.139,-18.13 -62.537,-18.963 l -0.001,0.001 0,-0.001 c -4.481,-0.141 -8.818,1.683 -11.988,4.853 l -14.974,14.974 c -3.098,3.097 -4.838,7.298 -4.838,11.679 l 0,9.675 c 0,22.596 15.141,41.621 35.82,47.579 -6.883,-8.492 -11.045,-19.272 -11.045,-31.063 l -0.001,-24.141 0,0 z"
       style="fill:#e6af78"
       inkscape:connector-curvature="0" /><path
       id="path19"
       d="m 478.968,397.779 c 0,-6.571 2.61,-12.872 7.256,-17.518 l 21.257,-21.257 c 2.841,4.061 4.519,8.95 4.519,14.169 l 0,60.376 c 0,4.561 -3.697,8.258 -8.258,8.258 l -24.774,0 0,-44.028 0,0 z"
       style="fill:#c7cfe2"
       inkscape:connector-curvature="0" /><path
       id="path21"
       d="m 433.548,371 -8.258,0 c -2.28,0 -4.129,-1.849 -4.129,-4.129 l 0,-12.387 16.516,0 0,12.387 c 0,2.28 -1.848,4.129 -4.129,4.129 z"
       style="fill:#959cb5"
       inkscape:connector-curvature="0" /><g
       id="g23"><path
         id="path25"
         d="M 429.419,354.409 415.422,365.1 c -2.411,1.842 -5.897,1.104 -7.354,-1.558 l -12.556,-22.93 5.054,-7.709 c 1.121,-1.71 3.51,-2.001 5.009,-0.611 l 23.844,22.117 z"
         style="fill:#c7cfe2"
         inkscape:connector-curvature="0" /><path
         id="path27"
         d="m 429.419,354.409 13.997,10.692 c 2.411,1.842 5.897,1.104 7.354,-1.558 l 12.556,-22.93 -5.054,-7.709 c -1.121,-1.71 -3.51,-2.001 -5.009,-0.611 l -23.844,22.116 z"
         style="fill:#c7cfe2"
         inkscape:connector-curvature="0" /></g><path
       id="path29"
       d="m 147.822,322.745 c -7.057,-18.698 -12.654,-50.841 -13.863,-67.576 -2.3,-31.846 -26.299,-57.806 -58.741,-57.806 -32.442,0 -56.441,25.961 -58.741,57.806 -1.209,16.734 -6.806,48.878 -13.863,67.576 -1.555,4.122 0.24,8.667 4.299,10.507 7.562,3.427 23.685,10.141 43.13,12.756 l 50.349,0 c 19.354,-2.621 35.59,-9.339 43.13,-12.756 4.06,-1.84 5.855,-6.385 4.3,-10.507 z"
       style="fill:#5a4146"
       inkscape:connector-curvature="0" /><path
       id="path31"
       d="m 143.523,333.253 c 4.058,-1.84 5.854,-6.385 4.298,-10.507 -7.056,-18.698 -12.654,-50.841 -13.862,-67.576 -2.299,-31.846 -26.299,-57.806 -58.74,-57.806 -0.082,0 -0.163,0 -0.245,0.001 -24.893,0.101 -33.69,34.05 -12.261,46.717 1.287,0.761 2.112,1.127 2.112,1.127 l 18.769,100.8 16.799,0 c 19.354,-2.623 35.59,-9.34 43.13,-12.756 z"
       style="fill:#694b4b"
       inkscape:connector-curvature="0" /><path
       id="path33"
       d="m 134.95,362.588 -26.724,-13.361 c -5.596,-2.798 -9.131,-8.518 -9.13,-14.774 l 0.002,-24.775 -49.55,0 0,24.776 c 0,6.256 -3.534,11.974 -9.13,14.772 L 13.694,362.588 C 5.301,366.784 0,375.362 0,384.745 l 0,48.802 c 0,4.56 3.697,8.258 8.258,8.258 l 132.129,0 c 4.561,0 8.258,-3.698 8.258,-8.258 l 0,-48.801 c 0,-9.384 -5.302,-17.962 -13.695,-22.158 z"
       style="fill:#e6af78"
       inkscape:connector-curvature="0" /><path
       id="path35"
       d="m 74.323,342.709 c 8.892,0 17.409,-1.833 25.217,-5.096 -0.205,-1.041 -0.444,-2.076 -0.444,-3.161 l 0.002,-24.775 -49.55,0 0,24.776 c 0,1.091 -0.239,2.131 -0.446,3.176 7.813,3.246 16.326,5.08 25.221,5.08 z"
       style="fill:#d29b6e"
       inkscape:connector-curvature="0" /><path
       id="path37"
       d="m 134.95,362.588 -19.038,-9.519 c -8.828,13.632 -24.139,22.673 -41.589,22.673 -17.45,0 -32.762,-9.041 -41.59,-22.674 l -19.038,9.52 C 5.302,366.784 0,375.362 0,384.745 l 0,48.802 c 0,4.561 3.697,8.258 8.258,8.258 l 132.129,0 c 4.561,0 8.258,-3.697 8.258,-8.258 l 0,-48.801 c 0,-9.384 -5.302,-17.962 -13.695,-22.158 z"
       style="fill:#d5dced"
       inkscape:connector-curvature="0" /><path
       id="path39"
       d="m 74.323,326.193 0,0 c -25.192,0 -45.992,-18.8 -49.137,-43.135 -0.456,-3.526 1.239,-6.983 4.413,-8.584 3.802,-1.918 9.327,-5.152 14.617,-9.872 5.891,-5.256 9.347,-10.799 11.299,-14.868 1.681,-3.504 5.545,-5.486 9.311,-4.525 29.076,7.416 48.871,22.543 56.053,28.719 1.928,1.658 3.039,4.103 2.841,6.639 -2.001,25.53 -23.352,45.626 -49.397,45.626 z"
       style="fill:#f0c087"
       inkscape:connector-curvature="0" /><path
       id="path41"
       d="m 120.878,273.927 c -7.181,-6.176 -26.977,-21.303 -56.053,-28.719 -3.766,-0.961 -7.63,1.021 -9.311,4.525 -1.478,3.082 -3.921,7.008 -7.546,11.016 -0.001,0.01 -0.004,0.018 -0.005,0.028 -1.125,1.275 -2.323,2.553 -3.747,3.825 -5.29,4.721 -10.815,7.954 -14.617,9.872 -3.174,1.601 -4.868,5.059 -4.413,8.585 2.825,21.855 19.927,39.251 41.625,42.569 -9.887,-6.726 -17.262,-15.976 -17.262,-32.466 l 0,-11.776 c 1.876,-1.385 3.765,-2.766 5.663,-4.46 4.59,-4.096 8.597,-8.833 11.81,-13.933 22.243,6.941 37.323,18.502 43.04,23.418 1.565,1.372 5.449,4.952 9.993,9.215 1.955,-4.705 3.248,-9.753 3.663,-15.058 0.199,-2.537 -0.912,-4.982 -2.84,-6.641 z"
       style="fill:#e6af78"
       inkscape:connector-curvature="0" /><path
       id="path43"
       d="M 5.034,369.859 C 1.853,374.081 0,379.26 0,384.745 l 0,48.802 c 0,4.561 3.697,8.258 8.258,8.258 l 24.774,0 0,-41.61 c 0,-5.017 -2.281,-9.763 -6.199,-12.897 L 5.034,369.859 Z"
       style="fill:#c7cfe2"
       inkscape:connector-curvature="0" /><path
       id="path45"
       d="M 374.643,351.318 305.548,326.192 256,342.709 206.452,326.193 137.357,351.319 c -13.054,4.747 -21.744,17.153 -21.744,31.043 l 0,51.186 c 0,4.56 3.697,8.258 8.258,8.258 l 264.258,0 c 4.561,0 8.258,-3.698 8.258,-8.258 l 0,-51.186 c 0,-13.891 -8.689,-26.297 -21.744,-31.044 z"
       style="fill:#ff507d"
       inkscape:connector-curvature="0" /><polygon
       id="polygon47"
       points="247.349,359.226 239.484,441.805 272.516,441.805 264.651,359.226 "
       style="fill:#707487" /><path
       id="path49"
       d="m 264.67,370.571 -17.34,0 c -3.193,0 -5.781,-2.588 -5.781,-5.781 l 0,-22.081 28.901,0 0,22.081 c 0.001,3.192 -2.587,5.781 -5.78,5.781 z"
       style="fill:#5b5d6e"
       inkscape:connector-curvature="0" /><path
       id="path51"
       d="m 387.498,359.855 c 5.576,5.985 8.889,13.956 8.889,22.506 l 0,51.186 c 0,4.561 -3.697,8.258 -8.258,8.258 l -41.29,0 0,-27.608 c 0,-8.761 3.48,-17.163 9.675,-23.357 l 30.984,-30.985 z"
       style="fill:#d23c69"
       inkscape:connector-curvature="0" /><path
       id="path53"
       d="m 346.839,155.889 0,-69.18 c 0,-9.122 -7.395,-16.516 -16.516,-16.516 l -99.097,0 c -36.486,0 -66.065,29.578 -66.065,66.065 l 0,19.631 c 0,8.876 1.431,17.694 4.238,26.114 l 2.749,8.247 c 0.842,2.526 1.271,5.171 1.271,7.834 l 0,4.238 165.161,0 0,-4.238 c 0,-2.663 0.429,-5.308 1.271,-7.834 l 2.749,-8.247 c 2.808,-8.421 4.239,-17.239 4.239,-26.114 z"
       style="fill:#5a4146"
       inkscape:connector-curvature="0" /><path
       id="path55"
       d="m 206.452,103.741 c 0,18.528 15.02,33.548 33.548,33.548 l 4.645,0 2.242,65.032 91.693,0 0,-4.238 c 0,-2.663 0.429,-5.308 1.271,-7.834 l 2.749,-8.247 c 2.807,-8.42 4.238,-17.238 4.238,-26.114 l 0,-69.179 c 0,-9.122 -7.395,-16.516 -16.516,-16.516 l -90.322,0 c -18.528,0 -33.548,15.02 -33.548,33.548 z"
       style="fill:#694b4b"
       inkscape:connector-curvature="0" /><rect
       id="rect57"
       height="74.32"
       width="99.099998"
       style="fill:#e6af78"
       y="268.39001"
       x="206.45" /><path
       id="path59"
       d="m 206.452,296.31 c 14.588,8.451 31.477,13.366 49.548,13.366 18.071,0 34.961,-4.915 49.548,-13.366 l 0,-27.924 -99.097,0 0.001,27.924 0,0 z"
       style="fill:#d29b6e"
       inkscape:connector-curvature="0" /><g
       id="g61"><path
         id="path63"
         d="m 256,342.709 -26.338,26.338 c -3.54,3.54 -9.391,3.141 -12.417,-0.847 l -27.309,-35.984 7.143,-15.053 c 2.108,-4.442 7.606,-6.07 11.792,-3.49 L 256,342.709 Z"
         style="fill:#d23c69"
         inkscape:connector-curvature="0" /><path
         id="path65"
         d="m 256,342.709 26.338,26.338 c 3.54,3.54 9.391,3.141 12.417,-0.847 l 27.309,-35.984 -7.143,-15.053 c -2.108,-4.442 -7.606,-6.07 -11.792,-3.49 L 256,342.709 Z"
         style="fill:#d23c69"
         inkscape:connector-curvature="0" /></g><path
       id="path67"
       d="m 256,293.161 0,0 c -45.608,0 -82.581,-36.973 -82.581,-82.581 l 0,-9.675 c 0,-4.38 1.74,-8.581 4.837,-11.679 l 6.841,-6.841 c 3.097,-3.097 4.837,-7.298 4.837,-11.679 l 0,-19.796 c 0,-3.824 2.568,-7.146 6.289,-8.025 19.531,-4.613 80.308,-15.54 121.669,14.88 2.686,1.975 4.171,5.22 4.171,8.554 l 0,4.387 c 0,4.38 1.74,8.581 4.837,11.679 l 6.841,6.841 c 3.097,3.097 4.837,7.298 4.837,11.679 l 0,9.675 c 0.003,45.608 -36.97,82.581 -82.578,82.581 z"
       style="fill:#f0c087"
       inkscape:connector-curvature="0" /><path
       id="path69"
       d="m 317.893,157.766 c -29.09,-21.395 -67.731,-22.321 -94.925,-19.392 -11.471,1.235 -20.949,3.144 -26.743,4.512 -3.721,0.879 -6.289,4.201 -6.289,8.025 l 0,19.795 c 0,4.381 -1.74,8.582 -4.838,11.68 l -6.841,6.841 c -3.098,3.098 -4.838,7.299 -4.838,11.68 l 0,9.674 c 0,42.224 31.71,76.985 72.602,81.92 -14.249,-14.839 -23.054,-34.948 -23.054,-57.146 l 0,-60.361 c 0,-8.369 6.223,-15.363 14.526,-16.404 19.818,-2.485 56.116,-3.979 84.57,12.118 l 0,-4.388 c 0.002,-3.334 -1.486,-6.58 -4.17,-8.554 z"
       style="fill:#e6af78"
       inkscape:connector-curvature="0" /><path
       id="path71"
       d="m 124.502,359.855 c -5.576,5.985 -8.889,13.956 -8.889,22.506 l 0,51.186 c 0,4.561 3.697,8.258 8.258,8.258 l 41.29,0 0,-27.608 c 0,-8.761 -3.48,-17.163 -9.675,-23.357 l -30.984,-30.985 z"
       style="fill:#d23c69"
       inkscape:connector-curvature="0" /><g
       id="g73" /><g
       id="g75" /><g
       id="g77" /><g
       id="g79" /><g
       id="g81" /><g
       id="g83" /><g
       id="g85" /><g
       id="g87" /><g
       id="g89" /><g
       id="g91" /><g
       id="g93" /><g
       id="g95" /><g
       id="g97" /><g
       id="g99" /><g
       id="g101" /></g></svg>